<svg width="48" height="48" viewBox="0 0 48 48" fill="none" xmlns="http://www.w3.org/2000/svg">
<rect width="48" height="48" rx="24" fill="#24292F"/>
<path fill-rule="evenodd" clip-rule="evenodd" d="M24.0103 11.7083C17.0924 11.7083 11.5 17.342 11.5 24.3116C11.5 29.8828 15.0833 34.5987 20.0542 36.2678C20.6757 36.3933 20.9034 35.9966 20.9034 35.663C20.9034 35.3708 20.8829 34.3693 20.8829 33.3257C17.4028 34.0771 16.6781 31.8233 16.6781 31.8233C16.1188 30.3627 15.2902 29.9873 15.2902 29.9873C14.1512 29.2152 15.3732 29.2152 15.3732 29.2152C16.6366 29.2987 17.2996 30.5089 17.2996 30.5089C18.4179 32.4285 20.2199 31.8861 20.9449 31.5522C21.0483 30.7384 21.3799 30.175 21.732 29.8621C18.9564 29.5699 16.0361 28.4849 16.0361 23.6438C16.0361 22.2666 16.5329 21.1399 17.3201 20.2636C17.1959 19.9506 16.7608 18.6567 17.4446 16.9248C17.4446 16.9248 18.5009 16.5909 20.8826 18.2185C21.9023 17.9427 22.954 17.8023 24.0103 17.8011C25.0667 17.8011 26.1435 17.9474 27.1378 18.2185C29.5198 16.5909 30.5761 16.9248 30.5761 16.9248C31.2599 18.6567 30.8245 19.9506 30.7003 20.2636C31.5083 21.1399 31.9846 22.2666 31.9846 23.6438C31.9846 28.4849 29.0643 29.5489 26.2679 29.8621C26.7237 30.2585 27.1171 31.0095 27.1171 32.199C27.1171 33.8891 27.0966 35.2455 27.0966 35.6627C27.0966 35.9966 27.3245 36.3933 27.9457 36.2681C32.9167 34.5984 36.4999 29.8828 36.4999 24.3116C36.5204 17.342 30.9075 11.7083 24.0103 11.7083Z" fill="white"/>
</svg>
