<svg width="48" height="48" viewBox="0 0 48 48" fill="none" xmlns="http://www.w3.org/2000/svg">
<rect width="48" height="48" rx="24" fill="#F5F5F5"/>
<path d="M34.786 21.8457H33.8999V21.8H24V26.2H30.2166C29.3096 28.7614 26.8726 30.6 24 30.6C20.3551 30.6 17.4 27.6449 17.4 24C17.4 20.3552 20.3551 17.4 24 17.4C25.6824 17.4 27.2131 18.0347 28.3785 19.0715L31.4898 15.9602C29.5252 14.1292 26.8974 13.0001 24 13.0001C17.9252 13.0001 13 17.9253 13 24C13 30.0748 17.9252 35 24 35C30.0747 35 34.9999 30.0748 34.9999 24C34.9999 23.2625 34.924 22.5425 34.786 21.8457Z" fill="#FFC107"/>
<path d="M14.2684 18.8801L17.8824 21.5305C18.8603 19.1094 21.2286 17.4 24.0001 17.4C25.6825 17.4 27.2132 18.0347 28.3786 19.0715L31.4899 15.9602C29.5254 14.1292 26.8975 13.0001 24.0001 13.0001C19.775 13.0001 16.1109 15.3854 14.2684 18.8801Z" fill="#FF3D00"/>
<path d="M24 35C26.8413 35 29.423 33.9127 31.375 32.1444L27.9705 29.2635C26.829 30.1316 25.4341 30.6012 24 30.6C21.1389 30.6 18.7096 28.7757 17.7944 26.2297L14.2073 28.9935C16.0278 32.5558 19.7249 35 24 35Z" fill="#4CAF50"/>
<path d="M34.786 21.8456H33.9V21.7999H24V26.1999H30.2166C29.7828 27.4189 29.0013 28.4842 27.9688 29.264L27.9704 29.2629L31.3749 32.1437C31.134 32.3626 35 29.4999 35 23.9999C35 23.2624 34.9241 22.5424 34.786 21.8456Z" fill="#1976D2"/>
</svg>
